<svg id="Layer_1" data-name="Layer 1" xmlns="http://www.w3.org/2000/svg" viewBox="0 0 1366 768"><defs><style>.cls-1{fill:#333;}.cls-2,.cls-3{fill:#fff;}.cls-3{font-size:55px;font-family:ProductSans-Bold, Product Sans;font-weight:700;}.cls-4{letter-spacing:0em;}.cls-5{letter-spacing:-0.02em;}.cls-6{letter-spacing:0em;}.cls-7{letter-spacing:-0.03em;}.cls-8{letter-spacing:-0.04em;}.cls-9{letter-spacing:-0.08em;}.cls-10{letter-spacing:-0.01em;}.cls-11{letter-spacing:0em;}.cls-12{font-size:15px;fill:#b3b3b3;}.cls-12,.cls-27{font-family:ProductSans-Regular, Product Sans;}.cls-13{letter-spacing:0em;}.cls-14{letter-spacing:0.01em;}.cls-15{letter-spacing:0em;}.cls-16{letter-spacing:-0.02em;}.cls-17{letter-spacing:-0.01em;}.cls-18{letter-spacing:-0.03em;}.cls-19{letter-spacing:0em;}.cls-20{letter-spacing:-0.02em;}.cls-21{letter-spacing:-0.05em;}.cls-22{letter-spacing:-0.02em;}.cls-23{letter-spacing:0.01em;}.cls-24{letter-spacing:-0.01em;}.cls-25{letter-spacing:-0.01em;}.cls-26{fill:none;stroke:#5cffe4;stroke-miterlimit:10;stroke-width:2px;}.cls-27{font-size:18.33px;fill:#5cffe4;}.cls-28{letter-spacing:0em;}.cls-29{letter-spacing:0em;}.cls-30{letter-spacing:-0.03em;}</style></defs><title>bg2</title><rect class="cls-1" width="1366" height="768"/><path class="cls-2" d="M215.75,110.82H196.37V92.93a4.86,4.86,0,0,0-4.86-4.86H174.25V75a4,4,0,0,0-4-4H134a4,4,0,0,0-4,4V94.18a4,4,0,0,0,4,4h8.64v18a4.86,4.86,0,0,0,4.86,4.86h28V134a4,4,0,0,0,4,4h36.24a4,4,0,0,0,4-4V114.82A4,4,0,0,0,215.75,110.82Z"/><text class="cls-3" transform="translate(130 293)"><tspan class="cls-4">G</tspan><tspan class="cls-5" x="44.28" y="0">e</tspan><tspan x="74.03" y="0">t </tspan><tspan class="cls-6" x="108.18" y="0">se</tspan><tspan x="165.88" y="0">cu</tspan><tspan class="cls-7" x="227.42" y="0">r</tspan><tspan x="248.16" y="0">e</tspan><tspan class="cls-8" x="278.74" y="0"> </tspan><tspan class="cls-9" x="288.64" y="0">T</tspan><tspan x="316.3" y="0">o</tspan><tspan class="cls-4" x="347.98" y="0">d</tspan><tspan class="cls-10" x="380.71" y="0">a</tspan><tspan class="cls-11" x="409.58" y="0">y</tspan></text><text class="cls-12" transform="translate(130 340)">Our <tspan class="cls-13" x="29.02" y="0">c</tspan><tspan class="cls-14" x="36.78" y="0">r</tspan><tspan class="cls-15" x="42.37" y="0">y</tspan><tspan class="cls-16" x="49.84" y="0">p</tspan><tspan class="cls-17" x="58.12" y="0">t</tspan><tspan x="63.36" y="0">ocur</tspan><tspan class="cls-18" x="93.16" y="0">r</tspan><tspan class="cls-19" x="98.16" y="0">ency-b</tspan><tspan class="cls-13" x="144.75" y="0">a</tspan><tspan class="cls-15" x="152.35" y="0">c</tspan><tspan class="cls-20" x="160.18" y="0">k</tspan><tspan class="cls-6" x="167.2" y="0">e</tspan><tspan class="cls-15" x="175.32" y="0">d</tspan><tspan class="cls-21" x="183.96" y="0"> </tspan><tspan x="186.51" y="0">VPN </tspan><tspan class="cls-20" x="218.19" y="0">o</tspan><tspan class="cls-18" x="226.36" y="0">ff</tspan><tspan x="236.11" y="0">e</tspan><tspan class="cls-22" x="244.15" y="0">r</tspan><tspan x="249.3" y="0">s </tspan><tspan class="cls-22" x="259.42" y="0">y</tspan><tspan class="cls-13" x="266.59" y="0">o</tspan><tspan x="274.92" y="0">u </tspan><tspan class="cls-6" x="286.35" y="0">t</tspan><tspan x="291.73" y="0">he h</tspan><tspan class="cls-13" x="319.33" y="0">i</tspan><tspan x="322.55" y="0">gh</tspan><tspan class="cls-23" x="339.32" y="0">e</tspan><tspan class="cls-17" x="347.44" y="0">s</tspan><tspan x="354.19" y="0">t</tspan><tspan class="cls-17" x="0" y="18">l</tspan><tspan class="cls-24" x="2.98" y="18">e</tspan><tspan class="cls-25" x="10.88" y="18">v</tspan><tspan class="cls-19" x="18.12" y="18">el </tspan><tspan class="cls-20" x="32.52" y="18">o</tspan><tspan x="40.69" y="18">f </tspan><tspan class="cls-23" x="49.51" y="18">se</tspan><tspan x="64.53" y="18">cur</tspan><tspan class="cls-13" x="85.93" y="18">i</tspan><tspan class="cls-6" x="89.16" y="18">t</tspan><tspan x="94.54" y="18">y</tspan></text><rect class="cls-26" x="130.11" y="406.38" width="204.11" height="45.09" rx="5.42" ry="5.42"/><text class="cls-27" transform="translate(189.89 434.47)">S<tspan class="cls-28" x="10.14" y="0">e</tspan><tspan class="cls-29" x="20.05" y="0">cu</tspan><tspan class="cls-30" x="39.55" y="0">r</tspan><tspan class="cls-29" x="45.66" y="0">e Me</tspan></text></svg>